# xmcd
#
# Track frame offsets:
#	150
#	15029
#	28010
#	40565
#	54432
#	68488
#	81645
#	96747
#	111420
#	123447
#	136338
#	148885
#	159654
#	174057
#	185845
#	201135
#	215416
#	228404
#	242017
#	252472
#	264376
#	277699
#
# Disc length: 3849 seconds
#
# Revision: 0
# Processed by: cddbd v1.4PL0 Copyright (c) Steve Scherf et al.
# Submitted via: dBpowerAMP V4.0
#
DISCID=370f0716
DTITLE=Ivar Dolve - A Tribute To Merle Haggard
DYEAR=1900
DGENRE=Country
TTITLE0=When It Rains It Pours
TTITLE1=I Take A Lot Of Pride In What I Am
TTITLE2=California Cottonfields
TTITLE3=Okie From Muskoogie
TTITLE4=Always Wanting You
TTITLE5=Living With The Shades Pulled Down
TTITLE6=No One To Sing For
TTITLE7=Big City
TTITLE8=It's Been A Great Afternoon
TTITLE9=Every Fool Has A Rainbow
TTITLE10=I'm Bringing Home Good News
TTITLE11=The Longer You Wait
TTITLE12=I Forget You Every Day
TTITLE13=Ain't Your Memory Got No Pride At All
TTITLE14=Rambling Fever
TTITLE15=Honky Tonk Night Time Man
TTITLE16=Our Paths May Never Cross
TTITLE17=Running Kind
TTITLE18=Movin' On
TTITLE19=Here In Frisco
TTITLE20=Tonight The Bottle Let Me Down
TTITLE21=If You Want To Be My Woman
EXTD=
EXTT0=
EXTT1=
EXTT2=
EXTT3=
EXTT4=
EXTT5=
EXTT6=
EXTT7=
EXTT8=
EXTT9=
EXTT10=
EXTT11=
EXTT12=
EXTT13=
EXTT14=
EXTT15=
EXTT16=
EXTT17=
EXTT18=
EXTT19=
EXTT20=
EXTT21=
PLAYORDER=
